<svg id="Layer_1" data-name="Layer 1" xmlns="http://www.w3.org/2000/svg" viewBox="0 0 805.76 526.47"><defs><style>.cls-1{fill:#1577ba;}.cls-2{fill:#0995d3;}.cls-3{fill:#0c4366;}.cls-10,.cls-11,.cls-4,.cls-5,.cls-7{font-size:16.66px;}.cls-10,.cls-11,.cls-14,.cls-16,.cls-18,.cls-21,.cls-22,.cls-23,.cls-4,.cls-5,.cls-7{fill:#fff;}.cls-10,.cls-11,.cls-13,.cls-14,.cls-16,.cls-18,.cls-21,.cls-22,.cls-23,.cls-4,.cls-5,.cls-7{font-family:Montserrat-Medium, Montserrat;}.cls-4,.cls-8{letter-spacing:0.1em;}.cls-5{letter-spacing:0.11em;}.cls-6{letter-spacing:0.1em;}.cls-7{letter-spacing:0.06em;}.cls-9{fill:none;stroke:#6d6e71;stroke-miterlimit:10;stroke-width:2px;}.cls-10{letter-spacing:0.09em;}.cls-11{letter-spacing:0.09em;}.cls-12{font-size:25px;font-family:Montserrat-Bold, Montserrat;font-weight:700;letter-spacing:0.03em;}.cls-12,.cls-13{fill:#414042;}.cls-13{font-size:21px;letter-spacing:0.02em;}.cls-14,.cls-16,.cls-18,.cls-21,.cls-22,.cls-23{font-size:16px;}.cls-14{letter-spacing:-0.02em;}.cls-15,.cls-21{letter-spacing:-0.01em;}.cls-16{letter-spacing:-0.01em;}.cls-17{letter-spacing:-0.01em;}.cls-18{letter-spacing:-0.01em;}.cls-19{letter-spacing:-0.05em;}.cls-20{letter-spacing:-0.02em;}.cls-22,.cls-24{letter-spacing:-0.01em;}.cls-23{letter-spacing:-0.03em;}.cls-25{letter-spacing:-0.06em;}.cls-26{letter-spacing:-0.02em;}</style></defs><title>illustration2</title><path class="cls-1" d="M82.37,343.11v46.63c0,8.51,27.3,15.41,61,15.41s61-6.9,61-15.41V343.11Z"/><ellipse class="cls-1" cx="143.35" cy="343.11" rx="60.98" ry="15.41"/><path class="cls-2" d="M82.37,340.15v46.63c0,8.52,27.3,15.42,61,15.42s61-6.9,61-15.42V340.15Z"/><ellipse class="cls-3" cx="143.35" cy="340.15" rx="60.98" ry="15.41"/><path class="cls-1" d="M82.37,285.83v46.64c0,8.51,27.3,15.41,61,15.41s61-6.9,61-15.41V285.83Z"/><ellipse class="cls-1" cx="143.35" cy="285.83" rx="60.98" ry="15.41"/><path class="cls-2" d="M82.37,283.1v46.63c0,8.51,27.3,15.41,61,15.41s61-6.9,61-15.41V283.1Z"/><ellipse class="cls-3" cx="143.35" cy="283.1" rx="60.98" ry="15.41"/><path class="cls-1" d="M82.37,228.67V275.3c0,8.52,27.3,15.42,61,15.42s61-6.9,61-15.42V228.67Z"/><ellipse class="cls-1" cx="143.35" cy="228.67" rx="60.98" ry="15.41"/><path class="cls-2" d="M82.37,225.93v46.64c0,8.51,27.3,15.41,61,15.41s61-6.9,61-15.41V225.93Z"/><ellipse class="cls-3" cx="143.35" cy="225.93" rx="60.98" ry="15.41"/><path class="cls-1" d="M82.37,171.37V218c0,8.51,27.3,15.41,61,15.41s61-6.9,61-15.41V171.37Z"/><ellipse class="cls-1" cx="143.35" cy="171.37" rx="60.98" ry="15.41"/><path class="cls-2" d="M82.37,168.9v46.64c0,8.51,27.3,15.41,61,15.41s61-6.9,61-15.41V168.9Z"/><ellipse class="cls-3" cx="143.35" cy="168.9" rx="60.98" ry="15.41"/><text class="cls-4" transform="translate(129.96 384.25)">Dp</text><text class="cls-5" transform="translate(133.33 328.98)">C<tspan class="cls-6" x="13.88" y="0">1</tspan></text><text class="cls-4" transform="translate(133.13 270.68)">B1</text><text class="cls-7" transform="translate(133.7 213.68)">A<tspan class="cls-8" x="13.16" y="0">1</tspan></text><line class="cls-9" x1="143.35" y1="168.9" x2="143.35" y2="126.73"/><line class="cls-9" x1="143.36" y1="126.73" x2="649.96" y2="126.73"/><path class="cls-1" d="M250.93,343.11v46.63c0,8.51,27.3,15.41,61,15.41s61-6.9,61-15.41V343.11Z"/><ellipse class="cls-1" cx="311.91" cy="343.11" rx="60.98" ry="15.41"/><path class="cls-2" d="M250.93,340.15v46.63c0,8.52,27.3,15.42,61,15.42s61-6.9,61-15.42V340.15Z"/><ellipse class="cls-3" cx="311.91" cy="340.15" rx="60.98" ry="15.41"/><path class="cls-1" d="M250.93,285.83v46.64c0,8.51,27.3,15.41,61,15.41s61-6.9,61-15.41V285.83Z"/><ellipse class="cls-1" cx="311.91" cy="285.83" rx="60.98" ry="15.41"/><path class="cls-2" d="M250.93,283.1v46.63c0,8.51,27.3,15.41,61,15.41s61-6.9,61-15.41V283.1Z"/><ellipse class="cls-3" cx="311.91" cy="283.1" rx="60.98" ry="15.41"/><path class="cls-1" d="M250.93,228.67V275.3c0,8.52,27.3,15.42,61,15.42s61-6.9,61-15.42V228.67Z"/><ellipse class="cls-1" cx="311.91" cy="228.67" rx="60.98" ry="15.41"/><path class="cls-2" d="M250.93,225.93v46.64c0,8.51,27.3,15.41,61,15.41s61-6.9,61-15.41V225.93Z"/><ellipse class="cls-3" cx="311.91" cy="225.93" rx="60.98" ry="15.41"/><path class="cls-1" d="M250.93,171.37V218c0,8.51,27.3,15.41,61,15.41s61-6.9,61-15.41V171.37Z"/><ellipse class="cls-1" cx="311.91" cy="171.37" rx="60.98" ry="15.41"/><path class="cls-2" d="M250.93,168.9v46.64c0,8.51,27.3,15.41,61,15.41s61-6.9,61-15.41V168.9Z"/><ellipse class="cls-3" cx="311.91" cy="168.9" rx="60.98" ry="15.41"/><text class="cls-10" transform="translate(301.2 384.25)">D<tspan class="cls-6" x="15.26" y="0">1</tspan></text><text class="cls-4" transform="translate(299.99 270.68)">B2</text><text class="cls-4" transform="translate(300.21 213.68)">A2</text><line class="cls-9" x1="311.91" y1="168.9" x2="311.91" y2="126.73"/><path class="cls-1" d="M419.48,343.11v46.63c0,8.51,27.31,15.41,61,15.41s61-6.9,61-15.41V343.11Z"/><ellipse class="cls-1" cx="480.46" cy="343.11" rx="60.98" ry="15.41"/><path class="cls-2" d="M419.48,340.15v46.63c0,8.52,27.31,15.42,61,15.42s61-6.9,61-15.42V340.15Z"/><ellipse class="cls-3" cx="480.46" cy="340.15" rx="60.98" ry="15.41"/><path class="cls-1" d="M419.48,285.83v46.64c0,8.51,27.31,15.41,61,15.41s61-6.9,61-15.41V285.83Z"/><ellipse class="cls-1" cx="480.46" cy="285.83" rx="60.98" ry="15.41"/><path class="cls-2" d="M419.48,283.1v46.63c0,8.51,27.31,15.41,61,15.41s61-6.9,61-15.41V283.1Z"/><ellipse class="cls-3" cx="480.46" cy="283.1" rx="60.98" ry="15.41"/><path class="cls-1" d="M419.48,228.67V275.3c0,8.52,27.31,15.42,61,15.42s61-6.9,61-15.42V228.67Z"/><ellipse class="cls-1" cx="480.46" cy="228.67" rx="60.98" ry="15.41"/><path class="cls-2" d="M419.48,225.93v46.64c0,8.51,27.31,15.41,61,15.41s61-6.9,61-15.41V225.93Z"/><ellipse class="cls-3" cx="480.46" cy="225.93" rx="60.98" ry="15.41"/><path class="cls-1" d="M419.48,171.37V218c0,8.51,27.31,15.41,61,15.41s61-6.9,61-15.41V171.37Z"/><ellipse class="cls-1" cx="480.46" cy="171.37" rx="60.98" ry="15.41"/><path class="cls-2" d="M419.48,168.9v46.64c0,8.51,27.31,15.41,61,15.41s61-6.9,61-15.41V168.9Z"/><ellipse class="cls-3" cx="480.46" cy="168.9" rx="60.98" ry="15.41"/><text class="cls-10" transform="translate(468.05 384.25)">D<tspan class="cls-6" x="15.26" y="0">2</tspan></text><text class="cls-11" transform="translate(468.89 328.98)">C<tspan class="cls-8" x="13.59" y="0">2</tspan></text><text class="cls-5" transform="translate(468.7 213.68)">A<tspan class="cls-8" x="14.03" y="0">3</tspan></text><line class="cls-9" x1="480.46" y1="168.9" x2="480.46" y2="125.85"/><path class="cls-1" d="M588,343.11v46.63c0,8.51,27.3,15.41,61,15.41s61-6.9,61-15.41V343.11Z"/><ellipse class="cls-1" cx="649.02" cy="343.11" rx="60.98" ry="15.41"/><path class="cls-2" d="M588,340.15v46.63c0,8.52,27.3,15.42,61,15.42s61-6.9,61-15.42V340.15Z"/><ellipse class="cls-3" cx="649.02" cy="340.15" rx="60.98" ry="15.41"/><path class="cls-1" d="M588,285.83v46.64c0,8.51,27.3,15.41,61,15.41s61-6.9,61-15.41V285.83Z"/><ellipse class="cls-1" cx="649.02" cy="285.83" rx="60.98" ry="15.41"/><path class="cls-2" d="M588,283.1v46.63c0,8.51,27.3,15.41,61,15.41s61-6.9,61-15.41V283.1Z"/><ellipse class="cls-3" cx="649.02" cy="283.1" rx="60.98" ry="15.41"/><path class="cls-1" d="M588,228.67V275.3c0,8.52,27.3,15.42,61,15.42s61-6.9,61-15.42V228.67Z"/><ellipse class="cls-1" cx="649.02" cy="228.67" rx="60.98" ry="15.41"/><path class="cls-2" d="M588,225.93v46.64c0,8.51,27.3,15.41,61,15.41s61-6.9,61-15.41V225.93Z"/><ellipse class="cls-3" cx="649.02" cy="225.93" rx="60.98" ry="15.41"/><path class="cls-1" d="M588,171.37V218c0,8.51,27.3,15.41,61,15.41s61-6.9,61-15.41V171.37Z"/><ellipse class="cls-1" cx="649.02" cy="171.37" rx="60.98" ry="15.41"/><path class="cls-2" d="M588,168.9v46.64c0,8.51,27.3,15.41,61,15.41s61-6.9,61-15.41V168.9Z"/><ellipse class="cls-3" cx="649.02" cy="168.9" rx="60.98" ry="15.41"/><line class="cls-9" x1="649.02" y1="168.9" x2="649.02" y2="126.73"/><text class="cls-12" transform="translate(350.94 97.6)">RAID 5</text><text class="cls-13" transform="translate(108.89 442.13)">Disk 0</text><text class="cls-13" transform="translate(280.57 442.13)">Disk 1</text><text class="cls-13" transform="translate(446.98 442.13)">Disk 2</text><text class="cls-13" transform="translate(615.56 442.13)">Disk 3</text><text class="cls-14" transform="translate(640.01 385.73)">D<tspan class="cls-15" x="12.86" y="0">3</tspan></text><text class="cls-16" transform="translate(640.76 328.77)">C<tspan class="cls-17" x="11.36" y="0">3</tspan></text><text class="cls-18" transform="translate(273.27 328.77)">C<tspan class="cls-15" x="11.36" y="0">-</tspan><tspan class="cls-19" x="17.33" y="0">P</tspan><tspan class="cls-15" x="28" y="0">ARI</tspan><tspan class="cls-20" x="55.82" y="0">T</tspan><tspan class="cls-15" x="64.93" y="0">Y</tspan></text><text class="cls-21" transform="translate(640.46 271.42)">B3</text><text class="cls-22" transform="translate(442.54 271.42)">B-<tspan class="cls-19" x="17.92" y="0">P</tspan><tspan class="cls-15" x="28.59" y="0">ARI</tspan><tspan class="cls-20" x="56.42" y="0">T</tspan><tspan class="cls-15" x="65.52" y="0">Y</tspan></text><text class="cls-23" transform="translate(611.36 215.08)">A<tspan class="cls-24" x="11.26" y="0">-</tspan><tspan class="cls-25" x="17.23" y="0">P</tspan><tspan class="cls-24" x="27.9" y="0">ARI</tspan><tspan class="cls-26" x="55.73" y="0">T</tspan><tspan class="cls-24" x="64.83" y="0">Y </tspan></text></svg>